# xmcd
#
# Track frame offsets:
#	150
#	16320
#	33517
#	49227
#	65447
#	82950
#	101360
#	111542
#	127765
#	138420
#	153212
#	159942
#	181560
#	199595
#	215505
#	227157
#
# Disc length: 3182 seconds
#
# Revision: 1
# Processed by: cddbd v1.5.2PL0 Copyright (c) Steve Scherf et al.
# Submitted via: audiograbber 1.83.01
#
DISCID=c70c6c10
DTITLE=Dirk Galperin - Say Goodbye With A Smile
DYEAR=2007
DGENRE=Acoustic
TTITLE0=Dark Hour
TTITLE1=Harper Country Song
TTITLE2=Beefsteak Blues
TTITLE3=Say Goodbye With A Smile
TTITLE4=Pure Beauty
TTITLE5=Mercy, Mercy, Mercy
TTITLE6=Child Play
TTITLE7=Don't Look Back
TTITLE8=Variation On Harper
TTITLE9=Drifters Wife
TTITLE10=Foolin' Around
TTITLE11=Seven Rythmns
TTITLE12=Continental Rag
TTITLE13=Two Souls Dancing
TTITLE14=Twelve String Rythmn
TTITLE15=Farewell
EXTD=www.dirkgalperin.de\nhttp://www.myspace.com/dirkgalperin
EXTT0=
EXTT1=
EXTT2=
EXTT3=
EXTT4=
EXTT5=
EXTT6=
EXTT7=
EXTT8=
EXTT9=
EXTT10=
EXTT11=
EXTT12=
EXTT13=
EXTT14=
EXTT15=
PLAYORDER=
